<svg id="Layer_1" data-name="Layer 1" xmlns="http://www.w3.org/2000/svg" viewBox="0 0 69.95 94.62"><defs><style>.cls-1,.cls-2{fill:none;stroke:#fff;stroke-miterlimit:10;stroke-width:4px;}.cls-2{stroke-dasharray:12.14 12.14;}.cls-3{fill:#fff;}</style></defs><title>whiteArrow</title><path class="cls-1" d="M255.22,66.45c1.66.83,3.43,1.8,5.24,2.92" transform="translate(-254.32 -64.66)"/><path class="cls-2" d="M270.05,76.79a45.25,45.25,0,0,1,8.31,10.93c5.83,10.85,4.07,18.75,7.06,29.44A54.08,54.08,0,0,0,296,137" transform="translate(-254.32 -64.66)"/><path class="cls-1" d="M300,141.46c1.47,1.49,2.94,2.85,4.38,4.1" transform="translate(-254.32 -64.66)"/><path class="cls-3" d="M324.27,159.28c-11.71-3.13-27.36-5.42-38.9-4.25L302,143.49l5.38-19.5C310.1,135.26,317.44,149.27,324.27,159.28Z" transform="translate(-254.32 -64.66)"/></svg>
